<svg width="50" height="50" viewBox="0 0 50 50" fill="none" xmlns="http://www.w3.org/2000/svg">
<path d="M46.2909 33.4541C44.2722 32.7381 42.5692 32.9172 41.2249 33.4824C41.4508 32.1116 41.9598 30.6199 43.0524 29.6063C43.7261 28.9813 43.7655 27.9286 43.1406 27.2549C42.516 26.5813 41.4631 26.5418 40.7892 27.1667C38.8687 28.9482 38.1242 31.4611 37.8611 33.5433C37.3611 33.3189 36.8094 33.1475 36.2082 33.0568L39.1616 17.698C39.2554 17.2105 39.1266 16.7068 38.8104 16.3241C38.4944 15.9414 38.0241 15.7199 37.5276 15.7199H37.2088C37.3552 14.9379 37.4291 14.1616 37.4232 13.4233C37.3985 10.3081 36.012 7.96164 33.7143 7.14666C31.5116 6.36518 29.668 6.60003 28.2347 7.24986C28.462 5.72528 29.0069 4.02579 30.2374 2.88437C30.9111 2.25946 30.9505 1.20676 30.3256 0.533025C29.701 -0.140544 28.648 -0.180106 27.9742 0.44481C25.9113 2.35861 25.1384 5.07797 24.8776 7.29851C23.7293 6.75457 22.3093 6.47579 20.6456 6.78252C18.936 4.3273 16.563 3.19565 14.2559 3.74868C11.988 4.29329 10.5715 5.49144 9.72323 6.81451C9.08232 5.40946 8.61077 3.6874 9.01751 2.07057C9.24158 1.17932 8.70084 0.275281 7.80976 0.0510387C6.91818 -0.173709 6.01448 0.367537 5.79024 1.25878C5.10387 3.9874 5.93805 6.68942 6.92963 8.69329C5.34192 8.90777 3.62138 9.70845 2.16616 11.6088C1.26263 12.7889 0.957745 14.2622 1.23502 15.8268C0.964984 15.9278 0.721718 16.0967 0.533839 16.3241C0.217846 16.7068 0.0888897 17.2105 0.182661 17.698L6.13434 48.6504C6.28502 49.4337 6.97054 50 7.76835 50H31.5758C32.3736 50 33.0591 49.4337 33.2098 48.6504L33.2683 48.3458C33.717 48.6549 34.199 48.9135 34.7163 49.1063C36.695 49.843 38.5391 49.5406 39.4722 49.2906C39.9658 49.4229 40.7145 49.5699 41.6032 49.5699C42.3941 49.5699 43.2963 49.4534 44.2279 49.1063C47.9162 47.7322 49.8756 43.1073 49.8466 39.4531C49.8234 36.4781 48.4941 34.2355 46.2909 33.4541ZM35.4288 19.0477C34.6626 26.3999 28.4724 31.4063 19.849 31.4063C11.2256 31.4063 5.03535 26.3997 4.26919 19.0477H35.4288ZM25.0503 11.7421C25.3382 12.2867 25.8877 12.6276 26.5042 12.6276C27.1207 12.6276 27.67 12.2867 27.9581 11.7421C28.0034 11.667 28.4114 11.0142 29.1599 10.5283C30.1429 9.8906 31.2687 9.8103 32.6017 10.283C33.931 10.7544 34.0891 12.6546 34.0955 13.4495C34.1012 14.1738 33.9949 14.9519 33.7976 15.7197H22.6638C23.032 13.8611 22.8109 11.8263 22.2125 9.9874C22.8008 10.0216 23.3434 10.201 23.8481 10.5283C24.597 11.0142 25.0047 11.6669 25.0503 11.7421ZM4.80859 13.6317C5.66835 12.509 6.65589 11.9627 7.82795 11.9615H7.83114C8.72239 11.9615 9.41886 12.2859 9.49731 12.3239C10.03 12.6201 10.6673 12.593 11.1827 12.2657C11.7002 11.9367 11.9796 11.3414 11.9343 10.7298C11.9254 10.6095 11.7539 7.77141 15.033 6.9842C16.4022 6.65491 17.5727 8.16164 18.0114 8.82494C19.2727 10.7318 19.9199 13.6807 19.2253 15.7196H4.61768C4.39764 15.0281 4.33838 14.246 4.80859 13.6317ZM9.1431 46.6723L5.84478 29.5197C6.06094 29.7275 6.2835 29.9302 6.51263 30.1275C9.96229 33.098 14.6987 34.734 19.849 34.734C24.9993 34.734 29.7357 33.0982 33.1854 30.1275C33.2658 30.0583 33.3444 29.9874 33.4232 29.9169L32.7493 33.4219C32.7173 33.4329 32.6859 33.4428 32.6537 33.4541C30.4505 34.2355 29.1212 36.4781 29.0978 39.4531C29.0833 41.2724 29.5623 43.3322 30.5015 45.1116L30.2015 46.6723H9.1431ZM43.0663 45.9879C41.5923 46.5369 40.1274 46.0152 40.0729 45.9953C39.6828 45.8443 39.2628 45.8406 38.8732 45.9948C38.8584 46.0005 37.3731 46.5446 35.8783 45.9877C33.7884 45.2093 32.4056 41.9938 32.4254 39.4793C32.4313 38.7515 32.5732 37.0133 33.7662 36.5903C34.3121 36.3967 34.7997 36.3172 35.2332 36.3172C36.9636 36.3172 37.8229 37.5857 38.0177 37.9175C38.305 38.4643 38.8544 38.8068 39.4724 38.8068C40.0906 38.8068 40.6397 38.464 40.9271 37.9175C41.1707 37.5027 42.453 35.6239 45.1786 36.5903C46.3714 37.0132 46.5135 38.7515 46.5194 39.4793C46.5391 41.994 45.1562 45.2095 43.0663 45.9879Z" fill="#FFA5BA"/>
</svg>
