<svg width="12" height="10" viewBox="0 0 12 10" fill="none" xmlns="http://www.w3.org/2000/svg">
<path d="M11.8497 4.79095C12.0672 4.58873 12.0462 4.2788 11.8028 4.09887L6.43981 0.13251C6.19638 -0.047419 5.80611 -0.0436499 5.56781 0.141007L0.186634 4.31034C-0.0516656 4.495 -0.0633615 4.80454 0.160739 5.00143L0.295652 5.12019C0.519479 5.31708 0.88127 5.34055 1.10322 5.17246L1.50538 4.86805V9.32467C1.50538 9.5981 1.7675 9.81946 2.09076 9.81946H4.18836C4.51162 9.81946 4.77374 9.5981 4.77374 9.32467V6.20683H7.44925V9.32467C7.4446 9.5979 7.6759 9.81926 7.99916 9.81926H10.2221C10.5453 9.81926 10.8075 9.5979 10.8075 9.32447V4.9308C10.8075 4.9308 10.9186 5.01306 11.0556 5.11486C11.1924 5.21647 11.4797 5.135 11.6972 4.93259L11.8497 4.79095Z" fill="#D31342"/>
</svg>
